<svg width="66" height="39" viewBox="0 0 66 39" fill="none" xmlns="http://www.w3.org/2000/svg">
<path d="M0.470577 33.1954C0.556791 27.4947 2.1161 21.9101 5.0008 16.9858C7.8855 12.0615 11.9944 7.97045 16.9248 5.10757L23.8288 17.4228C21.0854 19.0573 18.7973 21.3606 17.1804 24.1208C15.5635 26.8809 14.6732 30.0031 14.589 33.1954H0.470577Z" fill="#D1644F" stroke="white"/>
<path d="M24.0466 17.2565L17.4574 4.7701C22.4763 2.21782 28.0667 0.988504 33.6987 1.20276C39.3271 1.41688 45.4342 3.35116 49.8304 6.16005L42.8227 18.3066C40.0553 16.6742 36.3252 15.4285 33.1621 15.3081C30.0062 15.1881 26.873 15.8591 24.0466 17.2565Z" fill="#FFC266" stroke="white"/>
<path d="M42.7526 18.3464L50.1221 6.30395C54.8798 9.31527 58.792 13.4937 61.4843 18.4451C64.1766 23.3966 65.557 28.9517 65.4982 34.5819L51.3844 34.221C51.3818 31.068 50.5921 27.9627 49.0834 25.1881C47.5747 22.4135 45.3976 20.0625 42.7526 18.3464Z" fill="#7ABF4C" stroke="white"/>
<path fill-rule="evenodd" clip-rule="evenodd" d="M37.183 30.2684C37.7356 32.0404 37.1487 34.0439 35.5767 35.2172C33.584 36.7044 30.7629 36.2947 29.2756 34.302C28.317 33.0176 28.1465 31.389 28.68 29.9952L33.2298 12L37.189 30.2684L37.183 30.2684Z" fill="#24234C"/>
</svg>
